# xmcd CD database file
#
# Track frame offsets:
#	225
#	24063
#	59643
#	92154
#	135915
#	149695
#	172237
#	190578
#	209780
#
# Disc length: 3128 seconds
#
# Revision: 0
# Processed by: cddbd v1.5.2PL0 Copyright (c) Steve Scherf et al.
# Submitted via: CDex 1.70beta2
#
DISCID=860c3509
DTITLE=Collectif - accords majeurs
DYEAR=1900
DGENRE=Jazz
TTITLE0=Opale concerto - Richard Galliano
TTITLE1=Prières - Jean-Félix Lalanne
TTITLE2=Tags - Eric Pâque
TTITLE3=Izkor - Bruno Mursic
TTITLE4=Opale solo - Didier Lockwood
TTITLE5=Bunker - Bruno Dupont
TTITLE6=Le bord des larmes - Jean-Robert Lay
TTITLE7=Contre vents et marées - Fabrice Gratien
TTITLE8=La nuit à Sarajevo - Bruno Mursic
EXTD=
EXTT0=
EXTT1=
EXTT2=
EXTT3=
EXTT4=
EXTT5=
EXTT6=
EXTT7=
EXTT8=
PLAYORDER=
